<mxfile host="app.diagrams.net" modified="2022-10-20T12:48:09.833Z" agent="5.0 (Macintosh; Intel Mac OS X 10_14_5) AppleWebKit/537.36 (KHTML, like Gecko) Chrome/105.0.0.0 Safari/537.36" etag="EmtHgW9XO5sxGCRCgGVL" version="20.4.0" type="github">
  <diagram id="l6IjyZo5fdcpN0Skcl8L" name="第 1 页">
    <mxGraphModel dx="2350" dy="1276" grid="1" gridSize="10" guides="1" tooltips="1" connect="1" arrows="1" fold="1" page="1" pageScale="1" pageWidth="827" pageHeight="1169" math="0" shadow="0">
      <root>
        <mxCell id="0" />
        <mxCell id="1" parent="0" />
      </root>
    </mxGraphModel>
  </diagram>
</mxfile>
